SplineFontDB: 3.0
FontName: BulmerStM
FullName: Sorts Mill Bulmer
FamilyName: Sorts Mill Bulmer
Weight: Regular
Copyright: Created by trashman with FontForge 2.0 (http://fontforge.sf.net)
UComments: "2010-10-5: Created." 
Version: 001.000
ItalicAngle: 0
UnderlinePosition: -100
UnderlineWidth: 50
Ascent: 680
Descent: 320
LayerCount: 3
Layer: 0 0 "Back"  1
Layer: 1 0 "Fore"  0
Layer: 2 0 "backup"  0
NeedsXUIDChange: 1
XUID: [1021 658 797806517 5336769]
OS2Version: 0
OS2_WeightWidthSlopeOnly: 0
OS2_UseTypoMetrics: 1
CreationTime: 1286303174
ModificationTime: 1286490026
OS2TypoAscent: 0
OS2TypoAOffset: 1
OS2TypoDescent: 0
OS2TypoDOffset: 1
OS2TypoLinegap: 0
OS2WinAscent: 0
OS2WinAOffset: 1
OS2WinDescent: 0
OS2WinDOffset: 1
HheadAscent: 0
HheadAOffset: 1
HheadDescent: 0
HheadDOffset: 1
OS2Vendor: 'PfEd'
MarkAttachClasses: 1
DEI: 91125
Encoding: UnicodeBmp
UnicodeInterp: none
NameList: Adobe Glyph List
DisplaySize: -48
AntiAlias: 1
FitToEm: 1
WinInfo: 88 11 5
BeginPrivate: 9
BlueValues 23 [-16 0 392 396 664 678]
OtherBlues 11 [-276 -248]
BlueScale 9 0.0353571
BlueShift 1 7
BlueFuzz 1 0
StdHW 4 [34]
StemSnapH 29 [19 26 30 34 42 46 55 79 108]
StdVW 4 [81]
StemSnapV 10 [78 81 91]
EndPrivate
BeginChars: 65536 63

StartChar: a
Encoding: 97 97 0
Width: 413
VWidth: 0
Flags: W
HStem: -13 55<107.5 196.89 356.282 388.396> -12 42<298.482 386.582> 211 19<210.449 250> 371 21<139.541 220.414>
VStem: 40 85<58.5451 138.755 290.788 358.768> 250 81<58.8789 211 230 348.153>
LayerCount: 3
Fore
SplineSet
43 323 m 0xbc
 43 371 123 392 192 392 c 0
 266 392 331 355 331 295 c 2
 331 66 l 2
 331 50 332 30 356 30 c 0
 362 30 369 33 373 37 c 0
 378 42 380 47 385 47 c 0
 394 47 398 40 398 31 c 0
 398 5 364 -12 335 -12 c 0x7c
 265 -12 252 54 252 54 c 1
 252 54 233 34 208 16 c 0
 187 1 162 -13 135 -13 c 0
 80 -13 40 26 40 75 c 0
 40 133 91 183 151 207 c 0
 186 221 218 226 250 230 c 1
 250 305 l 2
 250 352 219 371 178 371 c 0
 164 371 149 370 139 362 c 0
 125 351 120 336 120 314 c 0
 120 297 96 284 81 284 c 0
 58 284 43 300 43 323 c 0xbc
250 211 m 1
 250 211 125 196 125 115 c 0
 125 79 144 42 189 42 c 0xbc
 204 42 250 63 250 93 c 2
 250 211 l 1
EndSplineSet
EndChar

StartChar: b
Encoding: 98 98 1
Width: 492
VWidth: 0
Flags: W
HStem: -14 31<195.991 298.532> -2 29<14.0116 66.8303> 368 26<211.666 302.067> 623 30<17.0403 51> 652 20G<137 147>
VStem: 72 78<28.7188 555.09> 366 91<99.5345 285.673>
LayerCount: 3
Fore
SplineSet
146 316 m 1x2e
 165 354 202 394 276 394 c 0
 368 394 457 307 457 192 c 0
 457 90 378 -14 261 -14 c 0
 169 -14 145 59 145 59 c 1
 145 17 l 2xae
 145 -2 144 -7 141 -7 c 0
 138 -7 99 -2 74 -2 c 2
 42 -2 l 2
 30 -2 14 -2 14 12 c 0
 14 23 18 25 33 27 c 2
 53 29 l 2
 70 31 72 58 72 81 c 2
 72 497 l 2
 72 521 72 549 71 589 c 0
 71 602 69 616 51 620 c 2
 36 623 l 2
 31 624 17 626 17 637 c 0
 17 648 23 652 36 653 c 0x76
 67 656 134 672 140 672 c 0
 154 672 154 665 154 656 c 0
 154 559 146 316 146 316 c 1x2e
366 190 m 0
 366 280 337 368 257 368 c 0
 227 368 202 355 183 335 c 0
 154 305 150 257 150 200 c 2
 150 189 l 2
 150 131 151 76 180 43 c 0
 192 29 219 17 245 17 c 0
 343 17 366 126 366 190 c 0
EndSplineSet
Layer: 2
SplineSet
146 314 m 5
 165 352 202 392 276 392 c 4
 368 392 458 305 458 190 c 4
 458 88 378 -16 261 -16 c 4
 174 -16 146 53 146 53 c 5
 146 15 l 6xbc
 146 -4 145 -10 142 -10 c 4
 139 -10 107 -4 82 -4 c 6
 42 -4 l 6
 30 -4 14 -4 14 10 c 4
 14 21 18 23 33 25 c 6
 53 27 l 6
 70 29 72 56 72 79 c 6
 72 495 l 6
 72 519 72 547 71 587 c 4
 71 600 69 614 51 618 c 6
 36 621 l 6
 31 622 17 624 17 635 c 4
 17 646 23 650 36 651 c 4
 67 654 134 670 140 670 c 4
 154 670 154 663 154 654 c 4
 154 557 146 314 146 314 c 5
366 188 m 4
 366 278 337 366 257 366 c 4
 227 366 202 353 183 333 c 4
 154 303 150 255 150 198 c 6
 150 187 l 6
 150 129 151 74 180 41 c 4
 192 27 219 15 245 15 c 4
 343 15 366 124 366 188 c 4
EndSplineSet
EndChar

StartChar: c
Encoding: 99 99 2
Width: 443
VWidth: 0
Flags: W
HStem: -16 46<186.859 320.911> 373 23<207.405 302.145>
VStem: 37 91<100.337 269.562> 321 72<270.888 357.538>
LayerCount: 3
Fore
SplineSet
249 396 m 0
 308 396 393 373 393 309 c 0
 393 282 377 267 352 267 c 0
 338 267 321 280 321 296 c 0
 321 317 323 316 323 331 c 0
 323 340 312 373 256 373 c 0
 162 373 128 277 128 191 c 0
 128 120 168 30 248 30 c 0
 298 30 329 44 350 73 c 0
 357 82 361 101 376 101 c 0
 385 101 389 94 389 86 c 0
 389 71 381 56 370 43 c 0
 341 7 283 -16 227 -16 c 0
 114 -16 37 74 37 183 c 0
 37 294 141 396 249 396 c 0
EndSplineSet
Layer: 2
SplineSet
249 396 m 4
 308 396 393 373 393 309 c 4
 393 282 377 267 352 267 c 4
 338 267 321 280 321 296 c 4
 321 317 323 316 323 331 c 4
 323 340 312 373 256 373 c 4
 162 373 128 277 128 191 c 4
 128 120 168 30 248 30 c 4
 298 30 329 44 350 73 c 4
 357 82 361 101 376 101 c 4
 385 101 389 94 389 86 c 4
 389 71 381 56 370 43 c 4
 341 7 283 -16 227 -16 c 4
 114 -16 34 74 34 183 c 4
 34 294 141 396 249 396 c 4
EndSplineSet
EndChar

StartChar: d
Encoding: 100 100 3
Width: 500
VWidth: 0
Flags: W
HStem: -14 37<177.465 279.778> 4 28<429.592 479.993> 365 26<188.462 284.166> 630 32<275.082 337.617> 658 20G<407 419.5>
VStem: 26 86<90.8497 283.025> 339 78<56.3391 331.079 488.692 630.969> 342 75<36.3959 57 336 595.493>
LayerCount: 3
Fore
SplineSet
480 18 m 0x6e
 480 9 479 4 470 4 c 0x6e
 416 4 372 -9 359 -9 c 0
 351 -9 346 -6 346 7 c 2
 346 57 l 1
 346 57 284 -14 217 -14 c 0
 73 -14 26 85 26 190 c 0
 26 292 99 391 222 391 c 0
 301 391 342 336 342 336 c 1
 342 487 l 2xa5
 342 523 340 565 339 597 c 0
 339 612 339 631 318 631 c 2
 294 630 l 2
 282 630 275 635 275 644 c 0
 275 651 277 662 288 662 c 0xb6
 340 664 401 678 413 678 c 0
 426 678 424 670 424 660 c 0
 424 654 418 568 418 520 c 0
 418 458 417 560 417 226 c 2
 417 189 l 2
 417 140 419 107 422 72 c 0
 424 50 432 33 454 32 c 0
 471 31 480 33 480 18 c 0x6e
  Spiro
    480 18 o
    479.409 10.3766 o
    476.588 5.62641 o
    470 4 o
    420.156 0.635406 o
    381.524 -5.63541 o
    359 -9 o
    352.08 -7.74352 o
    347.589 -2.91881 o
    346 7 [
    346 57 v
    327.479 38.6241 o
    280.165 4.37586 o
    217 -14 o
    103.566 15.4999 o
    43.4817 90.5351 o
    26 190 o
    49.4354 287.355 o
    116.606 361.611 o
    222 391 o
    288.169 376.765 o
    328.471 350.235 o
    342 336 v
    342 487 ]
    341.445 524.369 o
    340.221 562.296 o
    339 597 o
    338.225 612.466 o
    332.768 625.529 o
    318 631 [
    294 630 ]
    283.749 631.626 o
    277.255 636.377 o
    275 644 o
    275.924 651.77 o
    279.747 658.895 o
    288 662 o
    340.8 667.03 o
    386.853 674.303 o
    413 678 o
    421.625 675.56 o
    424.038 669.103 o
    424 660 o
    422.447 631.75 o
    419.553 576.236 o
    418 520 o
    417.741 490.464 o
    417.259 436.779 o
    417 226 [
    417 189 ]
    417.628 144.707 o
    419.373 106.964 o
    422 72 o
    426.289 52.0915 o
    436.384 37.9155 o
    454 32 o
    468.285 31.2605 o
    477.043 28.0682 o
    0 0 z
  EndSpiro
112 185 m 0
 112 107 153 23 236 23 c 0xa6
 280 23 318 44 331 78 c 0
 338 98 339 124 339 152 c 2
 339 262 l 2
 339 323 302 365 239 365 c 0
 151 365 112 273 112 185 c 0
  Spiro
    112 185 o
    125.676 108.405 o
    167.018 47.6207 o
    236 23 o
    277.258 29.6906 o
    310.398 48.6541 o
    331 78 o
    336.182 99.8283 o
    338.483 124.841 o
    339 152 [
    339 262 ]
    327.098 315.769 o
    292.881 351.877 o
    239 365 o
    167.019 337.94 o
    125.343 270.698 o
    0 0 z
  EndSpiro
EndSplineSet
Layer: 2
SplineSet
480 18 m 0x6e
 480 9 479 4 470 4 c 0x6e
 416 4 372 -9 359 -9 c 0
 351 -9 346 -6 346 7 c 2
 346 57 l 1
 346 57 284 -14 217 -14 c 0
 73 -14 26 85 26 190 c 0
 26 292 99 391 222 391 c 0
 301 391 342 336 342 336 c 1
 342 487 l 2
 342 523 340 565 339 597 c 0
 339 612 339 631 318 631 c 2
 294 630 l 2
 282 630 275 635 275 644 c 0
 275 651 277 662 288 662 c 0xb6
 340 664 401 678 413 678 c 0
 426 678 424 670 424 660 c 0
 424 654 418 568 418 520 c 0
 418 458 417 560 417 226 c 2
 417 189 l 2
 417 140 419 107 422 72 c 0
 424 50 432 33 454 32 c 0
 471 31 480 33 480 18 c 0x6e
112 185 m 0
 112 107 153 23 236 23 c 0xa6
 280 23 318 44 331 78 c 0
 340 103 342 135 342 171 c 2
 342 262 l 2
 342 323 302 365 239 365 c 0
 151 365 112 273 112 185 c 0
EndSplineSet
EndChar

StartChar: e
Encoding: 101 101 4
Width: 431
VWidth: 0
Flags: W
HStem: -18 52<190.734 312.789> 234 34<130.01 293.681> 241 24<130 245.053> 367 29<179.707 269.522>
VStem: 33 91<112.286 240.175> 298 80<247 325.484> 350 35<69.2803 115.745>
LayerCount: 3
Fore
SplineSet
33 176 m 0xba
 33 281 108 396 220 396 c 0
 247 396 272 394 294 383 c 0
 339 360 378 311 378 255 c 0
 378 239 360 234 343 234 c 0xdc
 329 234 124 241 124 241 c 1
 124 223 l 2
 124 96 184 34 260 34 c 0
 304 34 338 64 350 97 c 0
 354 106 360 116 370 116 c 0
 378 116 385 109 385 97 c 0
 385 63 335 -18 221 -18 c 0
 105 -18 33 65 33 176 c 0xba
224 367 m 0
 148 367 130 265 130 265 c 1xbc
 130 265 143 265 250 268 c 0
 276 269 298 270 298 308 c 0
 298 338 262 367 224 367 c 0
EndSplineSet
EndChar

StartChar: f
Encoding: 102 102 5
Width: 278
VWidth: 0
Flags: W
HStem: -2 34<24.0141 73.1042 159.365 221.985> 340 34<28.0075 76 157 228.85> 643 21<207.218 263.041>
VStem: 76 81<32 340.641 373.453 573.726> 264 86<560.528 642.809>
LayerCount: 3
Fore
SplineSet
264 627 m 0
 264 641 256 643 241 643 c 0
 166 643 157 530 157 488 c 2
 157 384 l 2
 157 373 157 373 168 373 c 2
 215 374 l 2
 226 374 229 369 229 358 c 2
 229 354 l 2
 229 345 225 340 213 340 c 2
 168 341 l 2
 157 341 157 340 157 328 c 2
 157 166 l 2
 157 152 157 118 158 85 c 0
 159 56 156 32 173 32 c 2
 205 32 l 2
 217 32 222 30 222 16 c 0
 222 1 217 -2 208 -2 c 0
 182 -2 152 0 124 0 c 0
 95 0 55 -2 39 -2 c 0
 26 -2 24 6 24 16 c 0
 24 28 27 32 41 32 c 2
 61 32 l 2
 76 32 74 62 75 85 c 0
 76 108 76 138 76 166 c 2
 76 328 l 2
 76 341 75 341 62 341 c 2
 40 340 l 2
 29 340 28 344 28 352 c 2
 28 361 l 2
 28 368 29 374 40 374 c 2
 66 373 l 2
 76 373 76 373 76 384 c 2
 76 454 l 2
 76 517 85 578 133 622 c 0
 164 650 193 664 252 664 c 0
 297 664 350 653 350 597 c 0
 350 567 322 554 307 554 c 0
 282 554 262 568 262 598 c 0
 262 610 264 620 264 627 c 0
EndSplineSet
EndChar

StartChar: g
Encoding: 103 103 6
Width: 454
VWidth: 0
Flags: W
HStem: -276 34<141.226 304.094> -67 22<123.866 141.993> -57 85<167 340.578> -50 78<167 265> 108 19<152.556 216.056> 369 19<159.137 217.59 311.801 378>
VStem: 29 65<-204.706 -84.7684> 32 83<172.425 320.274> 81 44<16.5 87.2421> 255 78<168.606 312.895> 366 56<-190.844 -81.0585>
LayerCount: 3
Fore
SplineSet
186 388 m 0xcd60
 237 388 280 354 280 354 c 1
 280 354 318 394 360 394 c 0
 396 394 422 379 422 344 c 0
 422 328 415 310 395 310 c 0
 353 310 362 367 332 367 c 0
 311 367 290 343 290 343 c 1
 290 343 333 299 333 240 c 0
 333 171 281 108 182 108 c 0
 166 108 125 104 125 68 c 0xcce0
 125 33 162 28 194 28 c 2
 279 28 l 2
 372 28 422 -14 422 -106 c 0
 422 -243 295 -276 220 -276 c 0
 123 -276 29 -230 29 -139 c 0xae60
 29 -66 86 -49 120 -45 c 0
 132 -44 142 -43 142 -42 c 0
 142 -41 130 -38 120 -33 c 0
 98 -22 81 -1 81 34 c 0xcce0
 81 88 136 113 136 113 c 1
 136 113 32 134 32 250 c 0
 32 330 106 388 186 388 c 0xcd60
94 -139 m 0xce60
 94 -200 130 -242 224 -242 c 0
 310 -242 366 -197 366 -125 c 0
 366 -79 321 -61 265 -57 c 2xae60
 167 -50 l 1x9e60
 167 -50 172 -67 160 -67 c 0
 113 -67 94 -108 94 -139 c 0xce60
188 369 m 0
 136 369 115 300 115 242 c 0x8d60
 115 191 129 127 182 127 c 0
 240 127 255 183 255 234 c 0
 255 290 245 369 188 369 c 0
EndSplineSet
Layer: 2
SplineSet
186 388 m 4xcd60
 237 388 280 354 280 354 c 5
 280 354 318 394 360 394 c 4
 396 394 422 379 422 344 c 4
 422 328 415 310 395 310 c 4
 353 310 362 367 332 367 c 4
 311 367 290 343 290 343 c 5
 290 343 333 299 333 240 c 4
 333 171 281 108 182 108 c 4
 166 108 125 104 125 68 c 4xcce0
 125 33 162 28 194 28 c 6
 279 28 l 6
 372 28 422 -14 422 -106 c 4
 422 -243 295 -276 220 -276 c 4
 123 -276 29 -230 29 -139 c 4xae60
 29 -66 86 -49 120 -45 c 4
 132 -44 142 -43 142 -42 c 4
 142 -41 130 -38 120 -33 c 4
 98 -22 81 -1 81 34 c 4xcce0
 81 88 136 113 136 113 c 5
 136 113 32 134 32 250 c 4
 32 330 106 388 186 388 c 4xcd60
94 -139 m 4xce60
 94 -200 130 -242 224 -242 c 4
 310 -242 366 -197 366 -125 c 4
 366 -79 321 -61 265 -57 c 6
 167 -50 l 5x9e60
 167 -50 172 -67 160 -67 c 4
 113 -67 94 -108 94 -139 c 4xce60
188 369 m 4
 136 369 114 300 114 242 c 4x8d60
 114 191 129 127 182 127 c 4
 240 127 256 183 256 234 c 4
 256 290 245 369 188 369 c 4
EndSplineSet
EndChar

StartChar: h
Encoding: 104 104 7
Width: 528
VWidth: 0
Flags: W
HStem: -2 34<29.0205 86.8968 172.828 226.968 295.043 351.104 436.688 496.965> 360 28<236.939 325.551> 625 32<25.0815 87.6167> 653 20G<157 169.5>
VStem: 90 81<32 318.234 322 626> 354 81<32 339.435>
LayerCount: 3
Fore
SplineSet
171 322 m 1xdc
 171 322 211 388 308 388 c 0
 384 388 435 351 435 289 c 2
 435 74 l 2
 435 46 438 32 452 32 c 2
 473 32 l 2
 485 32 497 30 497 16 c 0
 497 1 490 -2 481 -2 c 0
 455 -2 423 0 395 0 c 0
 366 0 334 -2 318 -2 c 0
 301 -2 295 3 295 16 c 0
 295 31 310 32 322 32 c 2
 339 32 l 2
 354 32 352 62 353 85 c 0
 354 108 354 138 354 166 c 2
 354 246 l 2
 354 312 346 360 278 360 c 0
 210 360 171 298 171 270 c 2
 171 69 l 2
 171 48 175 32 189 32 c 2
 204 32 l 2
 216 32 227 30 227 16 c 0
 227 1 217 -2 208 -2 c 0
 182 -2 160 0 132 0 c 0
 103 0 61 -2 45 -2 c 0
 32 -2 29 6 29 16 c 0
 29 28 35 32 49 32 c 2
 73 32 l 2
 88 32 90 62 90 85 c 2
 90 482 l 2
 90 518 90 560 89 592 c 0
 89 607 89 626 68 626 c 2
 44 625 l 2
 32 625 25 630 25 639 c 0
 25 646 27 657 38 657 c 0xec
 90 659 151 673 163 673 c 0
 176 673 174 665 174 655 c 0
 174 647 171 372 171 322 c 1xdc
EndSplineSet
Layer: 2
SplineSet
278 360 m 4xf4
 210 360 171 298 171 270 c 6
 171 69 l 6
 171 48 175 32 189 32 c 6
 204 32 l 6
 216 32 227 30 227 16 c 4
 227 1 217 -2 208 -2 c 4
 182 -2 160 0 132 0 c 4
 103 0 61 -2 45 -2 c 4
 32 -2 29 6 29 16 c 4
 29 28 35 32 49 32 c 6
 73 32 l 6
 88 32 87 62 88 85 c 4xf4
 92 240 98 500 98 587 c 6
 98 602 l 6
 98 616 97 630 84 630 c 4
 78 630 68 628 52 626 c 4
 40 625 36 632 36 641 c 4
 36 648 37 654 48 655 c 4
 96 660 157 673 168 673 c 4
 181 673 183 666 183 656 c 6xec
 183 656 175 580 171 322 c 5
 171 322 211 388 308 388 c 4
 384 388 436 351 436 289 c 6
 435 74 l 6
 435 46 438 32 452 32 c 6
 473 32 l 6
 485 32 497 30 497 16 c 4
 497 1 490 -2 481 -2 c 4
 455 -2 423 0 395 0 c 4
 366 0 334 -2 318 -2 c 4
 301 -2 295 3 295 16 c 4
 295 31 310 32 322 32 c 6
 339 32 l 6
 354 32 352 62 353 85 c 4
 354 108 354 138 354 166 c 6
 354 246 l 6
 354 312 346 360 278 360 c 4xf4
EndSplineSet
EndChar

StartChar: i
Encoding: 105 105 8
Width: 272
VWidth: 0
Flags: W
HStem: -2 34<41.0205 99.6456 187.914 248.968> 351 30<45.0029 103.719> 566 108<100.676 187.324>
VStem: 90 108<576.676 663.324> 105 81<32 351.991>
LayerCount: 3
Fore
SplineSet
90 620 m 0xf0
 90 650 114 674 144 674 c 0
 174 674 198 650 198 620 c 0
 198 590 174 566 144 566 c 0
 114 566 90 590 90 620 c 0xf0
104 328 m 0
 104 340 103 352 92 352 c 0
 86 352 77 351 61 351 c 0
 49 351 45 357 45 366 c 0
 45 373 46 381 57 381 c 0
 115 381 165 388 176 388 c 0
 188 388 190 378 190 368 c 0
 190 362 186 149 186 119 c 2
 186 85 l 2
 186 50 187 32 205 32 c 2
 226 32 l 2
 238 32 249 30 249 16 c 0
 249 1 239 -2 230 -2 c 0
 204 -2 175 0 147 0 c 0
 118 0 73 -2 57 -2 c 0
 44 -2 41 6 41 16 c 0
 41 28 47 32 61 32 c 2
 88 32 l 2
 103 32 105 80 105 119 c 2
 105 250 l 2xe8
 105 278 105 304 104 328 c 0
EndSplineSet
EndChar

StartChar: j
Encoding: 106 106 9
Width: 272
VWidth: 0
Flags: W
HStem: -248 27<4.14029 67.3437> 343 26<48.014 104.751> 566 108<100.676 187.324>
VStem: -89 87<-213.664 -147.02> 90 108<576.676 663.324> 109 81<-163.681 342.99>
LayerCount: 3
Fore
SplineSet
188 -89 m 0xf4
 185 -190 108 -248 9 -248 c 0
 -56 -248 -89 -226 -89 -187 c 0
 -89 -165 -68 -137 -40 -137 c 0
 -16 -137 -4 -160 -2 -179 c 0
 -1 -189 -2 -207 5 -214 c 0
 11 -220 16 -221 29 -221 c 0
 109 -221 109 -106 109 -29 c 2
 109 25 l 2
 109 122 109 220 107 313 c 0
 107 329 104 343 91 343 c 0
 85 343 76 341 62 339 c 0
 50 337 48 346 48 355 c 0
 48 362 49 368 60 369 c 0
 108 374 170 390 181 390 c 0
 194 390 192 381 192 371 c 2
 192 371 190 322 190 180 c 2
 190 34 l 2
 190 -12 189 -52 188 -89 c 0xf4
90 620 m 0xf8
 90 650 114 674 144 674 c 0
 174 674 198 650 198 620 c 0
 198 590 174 566 144 566 c 0
 114 566 90 590 90 620 c 0xf8
EndSplineSet
Layer: 2
SplineSet
188 -89 m 4xf4
 185 -190 108 -248 9 -248 c 4
 -56 -248 -89 -226 -89 -187 c 4
 -89 -165 -68 -137 -40 -137 c 4
 -16 -137 -4 -160 -2 -179 c 4
 -1 -189 -2 -207 5 -214 c 4
 11 -220 16 -221 29 -221 c 4
 109 -221 109 -104 109 -29 c 4
 109 90 107 203 107 313 c 4
 107 329 104 343 91 343 c 4
 85 343 76 341 62 339 c 4
 50 337 48 346 48 355 c 4
 48 362 49 368 60 369 c 4
 108 374 170 390 181 390 c 4
 194 390 192 381 192 371 c 6
 192 371 189 322 189 180 c 4
 189 139 190 91 190 34 c 4
 190 -12 189 -52 188 -89 c 4xf4
90 620 m 4xf8
 90 650 114 674 144 674 c 4
 174 674 198 650 198 620 c 4
 198 590 174 566 144 566 c 4
 114 566 90 590 90 620 c 4xf8
EndSplineSet
EndChar

StartChar: k
Encoding: 107 107 10
Width: 476
VWidth: 0
Flags: W
HStem: -2 32<27.0236 81.2098 168.744 219.935 248.078 279.999 423.143 468.929> 353 21<244.731 270.357 364.643 405.505> 629 25<23.0268 79.7509> 652 20G<150.5 163>
VStem: 85 81<30 170.994 194 628.979>
LayerCount: 3
Fore
SplineSet
406 359 m 0xd8
 406 350 398 347 389 347 c 0
 363 346 349 336 326 319 c 0
 293 294 260 259 240 238 c 0
 231 229 227 224 227 220 c 0
 227 216 232 212 240 203 c 0
 276 167 362 76 423 30 c 0
 426 28 432 28 435 28 c 0
 453 28 469 26 469 13 c 0
 469 -2 458 -2 449 -2 c 0
 423 -2 381 0 353 0 c 0
 324 0 280 -2 264 -2 c 0
 251 -2 248 6 248 16 c 0
 248 29 260 29 273 30 c 0
 279 30 280 33 280 37 c 0
 280 46 268 61 264 66 c 0
 243 94 217 121 184 163 c 0
 182 166 179 171 176 171 c 0
 169 171 166 163 166 146 c 2
 166 69 l 2
 166 48 171 30 185 30 c 2
 198 30 l 2
 210 30 220 30 220 16 c 0
 220 1 213 -2 204 -2 c 0
 178 -2 156 0 128 0 c 0
 99 0 57 -2 41 -2 c 0
 28 -2 27 6 27 16 c 0
 27 28 33 30 47 30 c 2
 69 30 l 2
 84 30 83 62 84 85 c 0
 85 116 85 151 85 188 c 2
 85 582 l 2
 85 600 85 629 68 629 c 0
 62 629 55 628 39 626 c 0
 27 625 23 631 23 640 c 0
 23 647 24 653 35 654 c 0xe8
 83 659 145 672 156 672 c 0
 170 672 171 665 171 655 c 0
 169 525 163 408 163 194 c 1
 192 221 280 304 280 322 c 0
 280 334 275 346 247 353 c 0
 238 355 239 374 248 374 c 2
 394 374 l 2
 402 374 406 367 406 359 c 0xd8
EndSplineSet
Layer: 2
SplineSet
406 359 m 4
 406 350 398 347 389 347 c 4
 363 346 349 336 326 319 c 4
 293 294 260 259 240 238 c 4
 231 229 227 224 227 220 c 4
 227 216 232 212 240 203 c 4
 276 167 362 76 423 30 c 4
 426 28 432 28 435 28 c 4
 453 28 469 26 469 13 c 4
 469 -2 458 -2 449 -2 c 4
 423 -2 381 0 353 0 c 4
 324 0 280 -2 264 -2 c 4
 251 -2 248 6 248 16 c 4
 248 29 260 29 273 30 c 4
 279 30 280 33 280 37 c 4
 280 46 268 61 264 66 c 4
 243 94 217 121 184 163 c 4
 182 166 179 171 176 171 c 4
 169 171 166 163 166 146 c 6
 166 69 l 6
 166 48 171 30 185 30 c 6
 198 30 l 6
 210 30 220 30 220 16 c 4
 220 1 213 -2 204 -2 c 4
 178 -2 156 0 128 0 c 4
 99 0 57 -2 41 -2 c 4
 28 -2 27 6 27 16 c 4
 27 28 33 30 47 30 c 6
 69 30 l 6
 84 30 83 62 84 85 c 4
 86 147 86 225 86 302 c 4
 86 417 86 528 85 582 c 4
 85 600 85 629 68 629 c 4
 62 629 55 628 39 626 c 4
 27 625 23 631 23 640 c 4
 23 647 24 653 35 654 c 4
 83 659 145 672 156 672 c 4
 169 672 171 665 171 655 c 6
 170 594 l 6
 169 516 164 366 164 195 c 5
 193 222 280 304 280 322 c 4
 280 334 275 346 247 353 c 4
 238 355 239 374 248 374 c 6
 394 374 l 6
 402 374 406 367 406 359 c 4
EndSplineSet
EndChar

StartChar: l
Encoding: 108 108 11
Width: 278
VWidth: 0
Flags: W
HStem: -2 33<27.0176 101.111 189.431 263.77> 626 32<40.0815 100.811> 654 20G<175 187.5>
VStem: 105 81<31.1406 627>
LayerCount: 3
Fore
SplineSet
105 483 m 2xb0
 105 519 105 561 104 593 c 0
 104 608 104 627 83 627 c 2
 59 626 l 2
 47 626 40 631 40 640 c 0
 40 647 42 658 53 658 c 0xd0
 105 660 169 674 181 674 c 0
 194 674 192 666 192 656 c 0
 192 650 186 524 186 476 c 2
 186 237 l 2
 186 166 186 134 187 76 c 0
 187 56 189 31 202 31 c 2
 242 32 l 2
 254 32 264 32 264 18 c 0
 264 3 255 -2 246 -2 c 0
 220 -2 172 0 144 0 c 0
 115 0 57 -2 41 -2 c 0
 28 -2 27 6 27 16 c 0
 27 28 33 31 47 31 c 2
 87 30 l 2
 102 30 105 62 105 85 c 2
 105 483 l 2xb0
EndSplineSet
Layer: 2
SplineSet
185 76 m 4xb0
 185 56 187 31 200 31 c 6
 240 32 l 6
 252 32 262 32 262 18 c 4
 262 3 253 -2 244 -2 c 4
 218 -2 170 0 142 0 c 4
 113 0 55 -2 39 -2 c 4
 26 -2 25 6 25 16 c 4
 25 28 31 31 45 31 c 6
 85 30 l 6
 100 30 100 62 100 85 c 4xb0
 103 229 107 464 110 588 c 4
 110 604 105 630 92 630 c 4
 86 630 78 628 62 627 c 4
 50 626 44 634 44 643 c 4
 44 650 47 657 58 658 c 4xc8
 120 663 169 673 180 673 c 4
 193 673 194 672 194 659 c 4xa8
 194 611 186 588 186 277 c 4
 186 206 186 135 185 76 c 4xb0
EndSplineSet
EndChar

StartChar: m
Encoding: 109 109 12
Width: 740
VWidth: 0
Flags: W
HStem: -2 36<28.0756 88.409 174.056 226.993 277.008 328.432 416.406 474.991 515.011 572.605 657.984 718.991> 343 31<30.0147 84.9386> 361 31<236.588 311.288 470.727 550.004>
VStem: 90 81<34.0171 302.148 303 341.055> 333 81<34.1555 322.393> 576 81<33.0282 342.795>
CounterMasks: 1 1c
LayerCount: 3
Fore
SplineSet
275 361 m 0xbc
 208 361 171 287 171 203 c 2
 171 171 l 2
 171 137 172 103 173 69 c 0
 173 39 178 32 206 32 c 0
 218 32 227 30 227 16 c 0
 227 1 217 -2 208 -2 c 0
 182 -2 160 0 132 0 c 0
 103 0 61 -2 45 -2 c 0
 32 -2 28 8 28 18 c 0
 28 30 34 34 48 34 c 2
 76 34 l 2
 90 34 90 62 90 85 c 2
 90 173 l 2
 90 238 90 292 89 311 c 0
 88 326 86 343 52 343 c 2
 42 343 l 2
 35 343 30 349 30 358 c 0
 30 365 35 373 46 374 c 0xdc
 96 379 145 392 156 392 c 0
 169 392 169 385 169 375 c 2
 169 303 l 1
 169 303 202 392 299 392 c 0
 343 392 394 368 411 321 c 1
 425 350 467 392 541 392 c 0
 621 392 657 349 657 269 c 2
 657 64 l 2
 657 43 664 33 676 33 c 2
 695 33 l 2
 707 33 719 30 719 16 c 0
 719 1 712 -2 703 -2 c 0
 677 -2 643 0 615 0 c 0
 586 0 554 -2 538 -2 c 0
 521 -2 515 3 515 16 c 0
 515 31 530 32 542 32 c 2
 559 32 l 2
 574 32 574 62 575 85 c 0
 576 108 576 138 576 166 c 2
 576 246 l 2
 576 312 571 360 503 360 c 0
 473 360 434 333 424 301 c 0
 419 283 414 254 414 191 c 2
 414 74 l 2
 414 31 432 34 451 32 c 0
 463 31 475 30 475 16 c 0
 475 1 466 -2 457 -2 c 0
 431 -2 401 0 373 0 c 0
 344 0 314 -2 298 -2 c 0
 281 -2 277 3 277 16 c 0
 277 31 288 34 300 34 c 2
 315 34 l 2
 330 34 330 62 331 85 c 0
 333 119 333 157 333 195 c 2
 333 248 l 2
 333 304 326 361 275 361 c 0xbc
EndSplineSet
Layer: 2
SplineSet
275 361 m 4
 208 361 171 287 171 203 c 4
 171 158 172 114 173 69 c 4
 173 39 178 32 206 32 c 4
 218 32 227 30 227 16 c 4
 227 1 217 -2 208 -2 c 4
 182 -2 160 0 132 0 c 4
 103 0 61 -2 45 -2 c 4
 32 -2 28 8 28 18 c 4
 28 30 34 34 48 34 c 6
 74 34 l 6
 88 34 88 62 88 85 c 6
 88 173 l 6
 88 238 88 292 87 311 c 4
 86 326 86 343 52 343 c 6
 42 343 l 6
 35 343 30 349 30 358 c 4
 30 365 35 373 46 374 c 4
 96 379 145 392 156 392 c 4
 169 392 169 385 169 375 c 6
 169 303 l 5
 169 303 202 392 299 392 c 4
 343 392 394 368 411 321 c 5
 425 350 467 392 541 392 c 4
 621 392 660 349 660 269 c 6
 659 64 l 6
 659 43 664 33 676 33 c 6
 695 33 l 6
 707 33 719 30 719 16 c 4
 719 1 712 -2 703 -2 c 4
 677 -2 643 0 615 0 c 4
 586 0 554 -2 538 -2 c 4
 521 -2 515 3 515 16 c 4
 515 31 530 32 542 32 c 6
 559 32 l 6
 574 32 573 62 574 85 c 4
 575 108 575 138 575 166 c 6
 575 246 l 6
 575 312 571 360 503 360 c 4
 473 360 434 333 424 301 c 4
 419 283 416 252 415 191 c 6
 414 74 l 6
 414 31 432 34 451 32 c 4
 463 31 475 30 475 16 c 4
 475 1 466 -2 457 -2 c 4
 431 -2 401 0 373 0 c 4
 344 0 314 -2 298 -2 c 4
 281 -2 277 3 277 16 c 4
 277 31 288 34 300 34 c 6
 315 34 l 6
 330 34 328 62 329 85 c 4
 331 119 331 157 331 195 c 6
 331 248 l 6
 331 304 326 361 275 361 c 4
EndSplineSet
EndChar

StartChar: n
Encoding: 110 110 13
Width: 506
VWidth: 0
Flags: W
HStem: -2 36<28.0756 84.9324 169.334 223.993 287.008 338.386 424.282 482.794> 346 29<35.0147 82.1035> 363 28<241.333 319.333>
VStem: 86 75<293 344.883> 87 81<34.0786 297.887> 342 81<34.0728 346.76>
LayerCount: 3
Fore
SplineSet
423 74 m 2xb4
 423 33 430 33 454 33 c 2
 467 33 l 2
 477 33 483 30 483 20 c 0
 483 2 475 -2 465 -2 c 0
 439 -2 410 0 382 0 c 0
 353 0 325 -2 309 -2 c 0
 292 -2 287 3 287 16 c 0
 287 31 298 34 310 34 c 2
 326 34 l 2
 341 34 339 62 340 85 c 0
 342 119 342 157 342 195 c 2
 342 248 l 2
 342 304 336 363 285 363 c 0
 231 363 168 302 168 218 c 2
 168 69 l 2
 168 39 175 31 203 31 c 0
 215 31 224 30 224 16 c 0
 224 1 214 -2 205 -2 c 0
 179 -2 160 0 132 0 c 0
 103 0 61 -2 45 -2 c 0
 32 -2 28 8 28 18 c 0
 28 30 34 34 48 34 c 2
 72 34 l 2
 86 34 87 62 87 85 c 2
 87 173 l 2xac
 87 238 87 292 86 311 c 0
 85 326 86 346 52 346 c 2
 47 346 l 2
 40 346 35 352 35 361 c 0
 35 368 40 375 51 375 c 0xd4
 100 376 144 386 151 386 c 0
 164 386 161 379 161 369 c 2
 161 293 l 1
 161 293 200 391 304 391 c 0
 332 391 423 390 423 265 c 2
 423 74 l 2xb4
EndSplineSet
Layer: 2
SplineSet
424 74 m 6xb8
 424 33 431 33 455 33 c 6
 468 33 l 6
 478 33 484 30 484 20 c 4
 484 2 476 -2 466 -2 c 4
 440 -2 410 0 382 0 c 4
 353 0 323 -2 307 -2 c 4
 290 -2 285 3 285 16 c 4
 285 31 296 34 308 34 c 6
 324 34 l 6
 339 34 337 62 338 85 c 4
 340 119 340 157 340 195 c 6
 340 248 l 6
 340 304 336 363 285 363 c 4xb8
 231 363 166 302 166 218 c 4
 166 173 167 114 168 69 c 4
 168 39 175 31 203 31 c 4
 215 31 224 30 224 16 c 4
 224 1 214 -2 205 -2 c 4
 179 -2 160 0 132 0 c 4
 103 0 61 -2 45 -2 c 4
 32 -2 28 8 28 18 c 4
 28 30 34 34 48 34 c 6
 72 34 l 6
 86 34 87 62 87 85 c 6
 87 173 l 6
 87 238 87 292 86 311 c 4
 85 326 86 346 52 346 c 6
 47 346 l 6
 40 346 35 352 35 361 c 4
 35 368 40 375 51 375 c 4xd8
 100 376 144 386 151 386 c 4
 164 386 161 379 161 369 c 6
 161 293 l 5
 161 293 200 391 304 391 c 4
 332 391 424 390 424 265 c 6
 424 74 l 6xb8
EndSplineSet
EndChar

StartChar: o
Encoding: 111 111 14
Width: 484
VWidth: 0
Flags: W
HStem: -16 27<191.281 289.963> 373 23<193.702 286.087>
VStem: 35 91<99.3062 277.68> 352 87<101.642 289.612>
LayerCount: 3
Fore
SplineSet
439 202 m 0
 439 89 363 -16 233 -16 c 0
 119 -16 35 80 35 194 c 0
 35 315 159 396 248 396 c 0
 351 396 439 310 439 202 c 0
243 373 m 0
 159 373 126 305 126 188 c 0
 126 89 158 11 241 11 c 0
 337 11 352 114 352 198 c 0
 352 278 325 373 243 373 c 0
EndSplineSet
Layer: 2
SplineSet
439 202 m 4
 439 89 363 -16 233 -16 c 4
 119 -16 34 80 34 194 c 4
 34 315 159 396 248 396 c 4
 351 396 439 310 439 202 c 4
243 373 m 4
 159 373 126 305 126 188 c 4
 126 89 158 11 241 11 c 4
 337 11 352 114 352 198 c 4
 352 278 325 373 243 373 c 4
EndSplineSet
EndChar

StartChar: p
Encoding: 112 112 15
Width: 524
VWidth: 0
Flags: W
HStem: -278 34<16.0141 88.5807 177.701 246.985> -13 25<230.012 328.581> 359 27<34.0037 90.052 223.072 340.553>
VStem: 93 78<-243.806 48 52.94 320.731 323 358.926> 401 91<95.8112 284.138>
LayerCount: 3
Fore
SplineSet
69 359 m 2
 51 359 l 2
 35 359 34 364 34 373 c 0
 34 381 39 386 54 386 c 2
 62 386 l 2
 94 386 152 392 156 392 c 0
 168 392 170 386 170 370 c 2
 170 323 l 1
 201 364 234 391 300 391 c 0
 401 391 492 311 492 188 c 0
 492 85 417 -13 294 -13 c 0
 202 -13 171 48 171 48 c 1
 171 -3 l 2
 171 -67 171 -118 173 -191 c 0
 174 -220 178 -244 195 -244 c 2
 230 -244 l 2
 242 -244 247 -246 247 -260 c 0
 247 -275 242 -278 233 -278 c 0
 207 -278 169 -276 141 -276 c 0
 112 -276 47 -278 31 -278 c 0
 18 -278 16 -270 16 -260 c 0
 16 -248 19 -244 33 -244 c 2
 76 -244 l 2
 91 -244 90 -214 91 -191 c 0
 92 -168 93 32 93 60 c 2
 93 327 l 2
 93 353 82 359 69 359 c 2
401 188 m 0
 401 285 360 365 283 365 c 0
 240 365 218 347 198 327 c 0
 172 301 171 265 171 236 c 2
 171 127 l 2
 171 31 241 12 277 12 c 0
 371 12 401 97 401 188 c 0
EndSplineSet
Layer: 2
SplineSet
69 359 m 6
 51 359 l 6
 35 359 34 364 34 373 c 4
 34 381 39 386 54 386 c 6
 62 386 l 6
 94 386 152 392 156 392 c 4
 168 392 170 386 170 370 c 6
 170 323 l 5
 201 364 234 391 300 391 c 4
 401 391 494 311 494 188 c 4
 494 85 417 -13 294 -13 c 4
 202 -13 171 48 171 48 c 5
 174 -48 173 -105 176 -191 c 4
 177 -220 178 -244 195 -244 c 6
 230 -244 l 6
 242 -244 247 -246 247 -260 c 4
 247 -275 242 -278 233 -278 c 4
 207 -278 169 -276 141 -276 c 4
 112 -276 47 -278 31 -278 c 4
 18 -278 16 -270 16 -260 c 4
 16 -248 19 -244 33 -244 c 6
 76 -244 l 6
 91 -244 89 -214 90 -191 c 4
 91 -168 93 32 93 60 c 6
 92 327 l 6
 92 353 82 359 69 359 c 6
401 188 m 4
 401 285 360 365 283 365 c 4
 240 365 218 347 198 327 c 4
 172 301 171 265 171 236 c 6
 171 127 l 6
 171 31 241 12 277 12 c 4
 371 12 401 97 401 188 c 4
EndSplineSet
EndChar

StartChar: q
Encoding: 113 113 16
Width: 500
VWidth: 0
Flags: W
HStem: -273 32<271.002 342.948 431.936 476.996> -13 30<192.889 293.381> 371 23<197.556 298.179>
VStem: 36 91<85.2984 276.519> 346 81<-240.771 48 50.0378 339.375>
LayerCount: 3
Fore
SplineSet
429 -188 m 0
 430 -229 430 -242 462 -243 c 0
 474 -243 477 -244 477 -257 c 0
 477 -272 472 -273 463 -273 c 0
 452 -273 412 -271 388 -271 c 0
 359 -271 302 -273 286 -273 c 0
 273 -273 271 -267 271 -257 c 0
 271 -245 274 -241 288 -241 c 2
 331 -241 l 2
 346 -241 344 -211 345 -188 c 0
 346 -170 346 -119 346 -69 c 2
 346 48 l 1
 323 9 276 -13 222 -13 c 0
 100 -13 36 79 36 179 c 0
 36 289 112 394 238 394 c 0
 319 394 351 344 351 344 c 9
 378 362 404 391 421 391 c 0
 434 391 434 371 434 357 c 0
 434 347 427 247 427 226 c 2
 427 145 l 2
 427 31 427 -80 429 -188 c 0
127 186 m 0
 127 115 148 17 251 17 c 0
 274 17 291 23 305 32 c 0
 342 55 349 113 349 169 c 2
 349 262 l 2
 349 323 318 371 250 371 c 0
 162 371 127 300 127 186 c 0
EndSplineSet
Layer: 2
SplineSet
429 -188 m 4
 429 -229 430 -242 462 -243 c 4
 474 -243 477 -244 477 -257 c 4
 477 -272 472 -273 463 -273 c 4
 452 -273 412 -271 388 -271 c 4
 359 -271 302 -273 286 -273 c 4
 273 -273 271 -267 271 -257 c 4
 271 -245 274 -241 288 -241 c 6
 331 -241 l 6
 346 -241 344 -211 345 -188 c 4
 346 -170 346 -119 346 -69 c 6
 346 48 l 5
 323 9 276 -13 222 -13 c 4
 100 -13 36 79 36 179 c 4
 36 289 112 394 238 394 c 4
 319 394 351 344 351 344 c 13
 378 362 404 391 421 391 c 4
 434 391 434 371 434 357 c 4
 434 347 426 247 426 226 c 4
 426 199 427 172 427 145 c 4
 427 31 428 -81 429 -188 c 4
127 186 m 4
 127 115 148 17 251 17 c 4
 274 17 291 23 305 32 c 4
 342 55 349 113 349 169 c 6
 349 262 l 6
 349 323 318 371 250 371 c 4
 162 371 127 300 127 186 c 4
EndSplineSet
EndChar

StartChar: r
Encoding: 114 114 17
Width: 358
VWidth: 0
Flags: W
HStem: -2 38<33.0176 93.3286 180.134 253.971> 349 32<34.0118 90.4633> 351 45<227.58 292.584>
VStem: 96 81<36.1621 348.968>
LayerCount: 3
Fore
SplineSet
94 326 m 0xb0
 93 338 85 349 73 349 c 2
 50 349 l 2
 38 349 34 355 34 364 c 0
 34 371 35 381 46 381 c 0xd0
 101 383 151 393 162 393 c 0
 174 393 174 383 174 373 c 2
 174 308 l 1
 192 345 233 396 285 396 c 0
 315 396 345 378 345 346 c 0
 345 323 328 302 305 302 c 0
 272 302 270 351 247 351 c 0
 228 351 200 322 187 286 c 0
 180 266 177 246 177 224 c 2
 177 84 l 2
 177 60 181 36 199 36 c 2
 232 36 l 2
 244 36 254 30 254 16 c 0
 254 1 244 -2 235 -2 c 0
 209 -2 168 0 140 0 c 0
 111 0 67 -2 51 -2 c 0
 38 -2 33 6 33 16 c 0
 33 28 39 35 53 35 c 2
 80 35 l 2
 95 35 94 61 95 84 c 0
 96 105 96 131 96 158 c 2
 96 248 l 2
 96 276 96 302 94 326 c 0xb0
EndSplineSet
Layer: 2
SplineSet
94 326 m 4xb0
 93 338 85 349 73 349 c 6
 50 349 l 6
 38 349 34 355 34 364 c 4
 34 371 35 381 46 381 c 4xd0
 101 383 153 393 164 393 c 4
 176 393 176 383 176 373 c 6
 176 308 l 5
 194 345 233 396 285 396 c 4
 315 396 345 378 345 346 c 4
 345 323 328 302 305 302 c 4
 272 302 270 351 247 351 c 4
 228 351 202 322 189 286 c 4
 182 266 180 246 180 224 c 6
 180 84 l 6
 180 60 181 36 199 36 c 6
 232 36 l 6
 244 36 254 30 254 16 c 4
 254 1 244 -2 235 -2 c 4
 209 -2 168 0 140 0 c 4
 111 0 67 -2 51 -2 c 4
 38 -2 33 6 33 16 c 4
 33 28 39 35 53 35 c 6
 80 35 l 6
 95 35 92 61 93 84 c 4
 94 105 96 131 96 158 c 6
 96 248 l 6
 96 276 96 302 94 326 c 4xb0
EndSplineSet
EndChar

StartChar: s
Encoding: 115 115 18
Width: 340
VWidth: 0
Flags: WO
HStem: -15 30<121.423 220.492> -2 21G<48 54> 369 24<134.537 214.143>
VStem: 44 66<259.968 346.857> 49 22<84.5435 132.948> 243 69<36.3626 132.204> 262 17<266.932 302.532>
LayerCount: 3
Fore
SplineSet
166 393 m 0xb4
 201 393 228 376 244 376 c 0
 250 376 255 378 260 380 c 2
 270 385 l 2
 273 387 276 388 278 388 c 0
 285 388 286 378 286 369 c 0
 286 350 279 313 279 277 c 0
 279 264 265 263 262 275 c 0xb2
 248 332 223 369 170 369 c 0
 130 369 110 338 110 305 c 0
 110 266 137 253 169 243 c 2
 213 229 l 2
 243 219 267 216 287 188 c 0
 305 164 312 123 312 108 c 0
 312 28 250 -15 172 -15 c 0xb4
 133 -15 99 12 92 12 c 0
 87 12 84 12 74 7 c 2
 65 2 l 2
 60 -1 56 -2 52 -2 c 0x74
 44 -2 38 4 38 15 c 0
 38 26 48 81 49 117 c 0
 49 125 54 133 59 133 c 0
 64 133 69 131 71 122 c 0xac
 72 114 75 105 77 98 c 0
 98 22 145 15 180 15 c 0
 216 15 243 42 243 86 c 0
 243 123 207 150 172 162 c 0
 115 182 91 180 59 228 c 0
 49 243 44 259 44 284 c 0
 44 348 99 393 166 393 c 0xb4
EndSplineSet
EndChar

StartChar: t
Encoding: 116 116 19
Width: 298
VWidth: 0
Flags: W
HStem: -13 44<169.265 242.753> 346 39<161.057 255>
VStem: 76 81<40.7706 345.965>
LayerCount: 3
Fore
SplineSet
70 62 m 0
 70 128 76 230 76 301 c 2
 76 329 l 2
 76 339 72 346 62 346 c 2
 56 346 l 2
 46 346 41 350 41 356 c 0
 41 361 45 367 50 372 c 0
 107 426 113 452 127 483 c 0
 132 494 136 503 150 503 c 0
 158 503 166 498 166 486 c 0
 166 460 162 423 161 401 c 0
 161 384 159 384 176 384 c 2
 231 385 l 2
 248 385 255 380 255 372 c 2
 255 362 l 2
 255 345 246 346 235 346 c 2
 167 347 l 2
 159 347 159 345 158 330 c 0
 157 302 157 234 157 178 c 2
 157 132 l 2
 157 76 162 31 206 31 c 0
 252 31 241 74 260 74 c 0
 267 74 275 69 275 59 c 0
 275 52 269 31 257 19 c 0
 239 1 208 -13 178 -13 c 0
 90 -13 70 43 70 62 c 0
EndSplineSet
Layer: 2
SplineSet
68 62 m 4xe0
 68 137 78 258 78 329 c 4
 78 339 74 346 64 346 c 6
 58 346 l 6
 48 346 43 350 43 356 c 4
 43 361 47 367 52 372 c 4
 109 426 113 452 127 483 c 4
 132 494 136 503 150 503 c 4
 158 503 166 498 166 486 c 4
 166 460 162 423 161 401 c 4
 161 384 159 384 176 384 c 6
 231 385 l 6
 248 385 255 380 255 372 c 6
 255 362 l 6
 255 345 246 346 235 346 c 6
 167 347 l 6
 159 347 159 345 158 330 c 4xd0
 157 302 157 234 157 178 c 6
 157 132 l 6
 157 76 162 31 206 31 c 4
 252 31 241 74 260 74 c 4
 267 74 275 69 275 59 c 4
 275 52 269 31 257 19 c 4
 239 1 208 -13 178 -13 c 4
 90 -13 68 43 68 62 c 4xe0
EndSplineSet
EndChar

StartChar: u
Encoding: 117 117 20
Width: 518
VWidth: 0
Flags: W
HStem: -16 38<191.878 281.057> -4 21G<365 376> 1 31<438.58 494.992> 349 29<29.0032 83.1922 291.149 350.459>
VStem: 85 81<45.635 348.993> 351 81<35.3594 351.991>
LayerCount: 3
Fore
SplineSet
85 250 m 2x9c
 85 278 85 304 84 328 c 0
 84 340 77 349 70 349 c 0
 65 349 49 348 45 348 c 0
 33 348 29 354 29 363 c 0
 29 370 30 378 41 378 c 0
 62 377 82 377 103 377 c 0
 120 377 138 377 156 378 c 0
 168 378 172 374 172 364 c 0
 172 358 166 282 166 196 c 2
 166 160 l 2
 166 65 182 22 243 22 c 0x9c
 306 22 351 89 351 156 c 2
 351 328 l 2
 351 340 346 352 334 352 c 0
 328 352 323 351 307 351 c 0
 295 351 291 357 291 366 c 0
 291 373 292 378 303 378 c 0
 361 378 409 383 420 383 c 0
 432 383 433 373 433 363 c 0
 433 356 432 187 432 85 c 0
 432 44 442 34 472 32 c 0
 484 31 495 30 495 16 c 0
 495 1 485 1 476 1 c 0x3c
 400 0 380 -4 372 -4 c 0x5c
 358 -4 357 0 357 10 c 2
 357 81 l 1
 346 56 296 -16 212 -16 c 0
 178 -16 149 -7 128 9 c 0
 99 30 85 56 85 106 c 2
 85 250 l 2x9c
EndSplineSet
Layer: 2
SplineSet
86 250 m 4xb8
 86 278 85 304 84 328 c 4
 84 340 77 349 70 349 c 4
 65 349 49 348 45 348 c 4
 33 348 29 354 29 363 c 4
 29 370 30 378 41 378 c 4
 62 377 82 377 103 377 c 4
 120 377 139 377 157 378 c 4
 169 378 173 374 173 364 c 4
 173 357 166 262 166 160 c 4
 166 65 182 22 243 22 c 4xb8
 306 22 350 89 351 156 c 4
 352 188 352 222 352 255 c 4
 352 280 352 305 351 328 c 4
 351 340 346 352 334 352 c 4
 328 352 323 351 307 351 c 4
 295 351 291 357 291 366 c 4
 291 373 292 378 303 378 c 4
 361 378 409 383 420 383 c 4
 432 383 433 373 433 363 c 4
 433 356 432 187 432 85 c 4
 432 44 442 34 472 32 c 4
 484 31 495 30 495 16 c 4
 495 1 485 1 476 1 c 4x78
 400 0 380 -4 372 -4 c 4
 358 -4 357 0 357 10 c 6
 357 81 l 5
 346 56 296 -16 212 -16 c 4
 178 -16 149 -7 128 9 c 4
 99 30 83 56 83 106 c 4
 83 152 86 203 86 250 c 4xb8
EndSplineSet
EndChar

StartChar: v
Encoding: 118 118 21
Width: 452
VWidth: 0
Flags: W
HStem: -14 21G<204.5 212> 358 26<15.0354 39 286.074 326.144 393.449 431.996>
VStem: 334 98<318.5 374>
DStem2: 259 143 289 147 0.408366 0.912818<-23.0956 194.548>
LayerCount: 3
Fore
SplineSet
94 382 m 0
 117 382 141 383 178 384 c 0
 191 384 192 375 192 369 c 0
 192 354 159 362 159 348 c 0
 159 332 212 203 234 148 c 0
 241 131 244 123 247 123 c 0
 250 123 252 129 259 143 c 0
 275 175 303 237 326 293 c 0
 331 304 334 314 334 323 c 0
 334 341 323 354 300 359 c 0
 292 361 286 366 286 372 c 0
 286 377 290 383 299 383 c 0
 321 383 339 382 359 382 c 0
 379 382 394 383 411 383 c 0
 426 383 432 377 432 371 c 0
 432 367 431 362 424 360 c 0
 390 349 377 333 363 304 c 2
 289 147 l 2
 277 122 245 46 227 0 c 0
 224 -8 216 -14 208 -14 c 0
 201 -14 194 -9 191 0 c 2
 147 125 l 2
 122 194 97 257 66 328 c 0
 59 342 50 351 39 354 c 2
 25 358 l 2
 18 360 15 365 15 372 c 0
 15 378 17 384 23 384 c 0
 56 384 77 382 94 382 c 0
EndSplineSet
EndChar

StartChar: w
Encoding: 119 119 22
Width: 694
VWidth: 0
Flags: W
HStem: -15 20G<217.5 224.5 453 460.5> 354 28<28.3484 66.2529 279.187 301 531.074 570.889 625.082 666.996>
VStem: 327 82<271.894 354.5> 574 93<318.5 371>
DStem2: 261 141 286 136 0.359227 0.93325<-22.9214 149.83> 500 138 519 114 0.380439 0.924806<-23.0041 198.85>
LayerCount: 3
Fore
SplineSet
100 380 m 0
 123 380 151 381 188 382 c 0
 201 382 202 375 202 369 c 0
 202 350 164 362 164 337 c 0
 164 321 214 201 236 146 c 0
 243 129 246 121 249 121 c 0
 252 121 254 127 261 141 c 0
 269 158 298 228 315 272 c 0
 321 289 327 302 327 314 c 0
 327 318 326 323 324 327 c 2
 315 346 l 2
 313 351 308 354 301 356 c 2
 291 358 l 2
 284 359 279 363 279 370 c 0
 279 379 286 381 303 381 c 0
 319 381 346 380 352 380 c 0
 373 380 395 381 428 382 c 0
 441 382 442 375 442 369 c 0
 442 354 409 362 409 348 c 0
 409 332 453 198 475 143 c 0
 482 126 485 118 488 118 c 0
 491 118 493 124 500 138 c 0
 516 170 543 237 566 293 c 0
 571 304 574 314 574 323 c 0
 574 341 568 351 545 356 c 0
 537 358 531 363 531 369 c 0
 531 374 535 381 544 381 c 0
 566 381 577 380 597 380 c 0
 617 380 629 381 646 381 c 0
 661 381 667 374 667 368 c 0
 667 364 666 359 659 357 c 0
 625 346 613 334 600 303 c 2
 519 114 l 1
 477 4 l 2
 472 -10 464 -16 457 -16 c 0
 449 -16 440 -8 436 6 c 2
 397 125 l 2
 384 164 369 211 353 252 c 0
 348 264 346 270 344 270 c 0
 342 270 339 264 334 252 c 2
 286 136 l 2
 276 111 254 46 237 0 c 0
 233 -10 228 -15 221 -15 c 0
 214 -15 206 -9 202 0 c 0
 154 113 119 210 72 328 c 0
 66 343 60 351 50 354 c 0
 38 358 28 358 28 372 c 0
 28 378 38 382 44 382 c 0
 77 382 83 380 100 380 c 0
EndSplineSet
EndChar

StartChar: x
Encoding: 120 120 23
Width: 484
VWidth: 0
Flags: W
HStem: -2 33<10.3587 74.6376 263.078 294.999 418.106 462.992> 354 27<10.0088 62.0553 170.003 199.996 283.297 320.837 377.441 434.953>
DStem2: 183 318 72 329 0.642871 -0.765974<-26.486 104.597 137.096 286.908> 107 79 136 66 0.656399 0.754414<-11.554 9.2282 210.995 334.436>
LayerCount: 3
Fore
SplineSet
195 177 m 1
 195 177 137 254 72 329 c 0
 62 341 53 354 33 354 c 2
 20 354 l 2
 13 354 10 361 10 368 c 0
 10 374 12 381 18 381 c 0
 51 381 77 380 94 380 c 0
 117 380 149 380 186 381 c 0
 199 381 200 373 200 367 c 0
 200 358 194 358 189 357 c 0
 174 354 170 349 170 342 c 0
 170 335 176 327 183 318 c 2
 248 236 l 1
 248 236 321 320 321 337 c 0
 321 355 312 357 297 357 c 0
 288 357 283 364 283 370 c 0
 283 375 287 381 296 381 c 0
 318 381 339 380 359 380 c 0
 379 380 397 381 414 381 c 0
 429 381 435 375 435 369 c 0
 435 360 431 354 424 353 c 0
 385 348 384 350 357 320 c 2
 263 218 l 1
 263 218 373 85 418 38 c 0
 420 35 439 31 442 31 c 0
 462 29 463 26 463 13 c 0
 463 -2 452 -2 443 -2 c 0
 417 -2 391 0 363 0 c 0
 334 0 297 -2 281 -2 c 0
 268 -2 263 6 263 16 c 0
 263 29 275 29 288 30 c 0
 294 30 295 33 295 37 c 0
 295 46 283 61 279 66 c 2
 208 160 l 25
 136 66 l 2
 130 58 127 52 127 46 c 0
 127 15 175 38 175 14 c 0
 175 -1 161 -2 152 -2 c 0
 126 -2 111 0 83 0 c 0
 54 0 45 -2 29 -2 c 0
 16 -2 10 1 10 11 c 0
 10 23 20 26 30 28 c 0
 62 34 77 46 107 79 c 2
 195 177 l 1
EndSplineSet
EndChar

StartChar: y
Encoding: 121 121 24
Width: 452
VWidth: 0
Flags: W
HStem: -277 106<77.9826 143.859> 357 27<15.0088 42 163.005 197.896 301.026 342.131 407.179 446.979>
VStem: 349 98<318.5 373>
DStem2: 169 325 68 328 0.420461 -0.907311<-19.5896 227.221> 220 0 182 -177 0.379511 0.925187<-181.458 0 127.235 347.401>
LayerCount: 3
Fore
SplineSet
220 0 m 1
 165 125 l 2
 136 193 103 257 68 328 c 0
 61 342 53 350 42 353 c 2
 25 357 l 2
 18 359 15 364 15 371 c 0
 15 377 17 384 23 384 c 0
 56 384 77 382 94 382 c 0
 117 382 147 383 184 384 c 0
 197 384 198 374 198 368 c 0
 198 363 194 361 188 359 c 0
 170 354 163 352 163 344 c 0
 163 340 165 334 169 325 c 0
 186 283 227 196 247 151 c 0
 256 131 263 119 265 119 c 0
 268 119 272 128 280 144 c 0
 296 176 318 237 341 293 c 0
 346 304 349 314 349 323 c 0
 349 341 338 353 315 358 c 0
 307 360 301 365 301 371 c 0
 301 376 305 383 314 383 c 0
 336 383 354 382 374 382 c 0
 394 382 409 383 426 383 c 0
 441 383 447 376 447 370 c 0
 447 366 446 361 439 359 c 0
 405 348 391 333 378 304 c 2
 309 147 l 2
 298 122 268 40 250 -6 c 0
 248 -10 221 -77 193 -147 c 0
 189 -157 186 -167 182 -177 c 0
 168 -213 150 -277 104 -277 c 0
 80 -277 58 -260 58 -238 c 0
 58 -192 96 -180 122 -171 c 0
 141 -164 155 -147 164 -128 c 0
 190 -76 220 0 220 0 c 1
EndSplineSet
EndChar

StartChar: z
Encoding: 122 122 25
Width: 374
VWidth: 0
Flags: W
HStem: -2 31<144.806 257.377> 353 26<113.909 227.996>
VStem: 35 28<248.071 293.14> 315 29<84.6108 140.977>
DStem2: 31 30 146 53 0.529906 0.848057<60.799 371.993>
LayerCount: 3
Fore
SplineSet
337 17 m 0
 337 7 332 -2 310 -2 c 0
 302 -2 262 0 158 0 c 0
 113 0 54 -2 43 -2 c 0
 30 -2 26 5 26 13 c 0
 26 19 28 26 31 30 c 0
 78 100 144 203 186 272 c 0
 203 300 228 337 228 346 c 0
 228 353 223 353 209 353 c 2
 202 353 l 2
 192 353 131 353 106 336 c 0
 78 317 76 281 63 258 c 0
 60 253 55 248 48 248 c 0
 35 248 34 259 35 271 c 0
 37 291 39 301 40 356 c 0
 40 372 43 380 58 380 c 0
 64 380 163 379 208 379 c 0
 262 379 312 381 322 381 c 0
 330 381 336 376 336 368 c 0
 336 360 333 352 330 348 c 0
 293 301 213 170 146 53 c 0
 143 47 133 29 148 29 c 0
 199 29 229 31 262 46 c 0
 298 62 308 96 315 125 c 0
 317 133 318 141 329 141 c 0
 336 141 344 136 344 129 c 0
 344 112 340 97 339 84 c 0
 337 63 338 43 337 17 c 0
EndSplineSet
EndChar

StartChar: zero
Encoding: 48 48 52
Width: 236
VWidth: 0
Flags: W
HStem: 174 112<75.9218 164.078>
VStem: 64 112<185.922 274.078>
LayerCount: 3
Fore
SplineSet
64 230 m 0
 64 261 89 286 120 286 c 0
 151 286 176 261 176 230 c 0
 176 199 151 174 120 174 c 0
 89 174 64 199 64 230 c 0
EndSplineSet
EndChar

StartChar: one
Encoding: 49 49 53
Width: 236
VWidth: 0
Flags: W
HStem: 174 112<75.9218 164.078>
VStem: 64 112<185.922 274.078>
LayerCount: 3
Fore
SplineSet
64 230 m 0
 64 261 89 286 120 286 c 0
 151 286 176 261 176 230 c 0
 176 199 151 174 120 174 c 0
 89 174 64 199 64 230 c 0
EndSplineSet
EndChar

StartChar: two
Encoding: 50 50 54
Width: 236
VWidth: 0
Flags: W
HStem: 174 112<75.9218 164.078>
VStem: 64 112<185.922 274.078>
LayerCount: 3
Fore
SplineSet
64 230 m 0
 64 261 89 286 120 286 c 0
 151 286 176 261 176 230 c 0
 176 199 151 174 120 174 c 0
 89 174 64 199 64 230 c 0
EndSplineSet
EndChar

StartChar: three
Encoding: 51 51 55
Width: 236
VWidth: 0
Flags: W
HStem: 174 112<75.9218 164.078>
VStem: 64 112<185.922 274.078>
LayerCount: 3
Fore
SplineSet
64 230 m 0
 64 261 89 286 120 286 c 0
 151 286 176 261 176 230 c 0
 176 199 151 174 120 174 c 0
 89 174 64 199 64 230 c 0
EndSplineSet
EndChar

StartChar: four
Encoding: 52 52 56
Width: 236
VWidth: 0
Flags: W
HStem: 174 112<75.9218 164.078>
VStem: 64 112<185.922 274.078>
LayerCount: 3
Fore
SplineSet
64 230 m 0
 64 261 89 286 120 286 c 0
 151 286 176 261 176 230 c 0
 176 199 151 174 120 174 c 0
 89 174 64 199 64 230 c 0
EndSplineSet
EndChar

StartChar: five
Encoding: 53 53 57
Width: 236
VWidth: 0
Flags: W
HStem: 174 112<75.9218 164.078>
VStem: 64 112<185.922 274.078>
LayerCount: 3
Fore
SplineSet
64 230 m 0
 64 261 89 286 120 286 c 0
 151 286 176 261 176 230 c 0
 176 199 151 174 120 174 c 0
 89 174 64 199 64 230 c 0
EndSplineSet
EndChar

StartChar: six
Encoding: 54 54 58
Width: 236
VWidth: 0
Flags: W
HStem: 174 112<75.9218 164.078>
VStem: 64 112<185.922 274.078>
LayerCount: 3
Fore
SplineSet
64 230 m 0
 64 261 89 286 120 286 c 0
 151 286 176 261 176 230 c 0
 176 199 151 174 120 174 c 0
 89 174 64 199 64 230 c 0
EndSplineSet
EndChar

StartChar: seven
Encoding: 55 55 59
Width: 236
VWidth: 0
Flags: W
HStem: 174 112<75.9218 164.078>
VStem: 64 112<185.922 274.078>
LayerCount: 3
Fore
SplineSet
64 230 m 0
 64 261 89 286 120 286 c 0
 151 286 176 261 176 230 c 0
 176 199 151 174 120 174 c 0
 89 174 64 199 64 230 c 0
EndSplineSet
EndChar

StartChar: eight
Encoding: 56 56 60
Width: 236
VWidth: 0
Flags: W
HStem: 174 112<75.9218 164.078>
VStem: 64 112<185.922 274.078>
LayerCount: 3
Fore
SplineSet
64 230 m 0
 64 261 89 286 120 286 c 0
 151 286 176 261 176 230 c 0
 176 199 151 174 120 174 c 0
 89 174 64 199 64 230 c 0
EndSplineSet
EndChar

StartChar: nine
Encoding: 57 57 61
Width: 236
VWidth: 0
Flags: W
HStem: 174 112<75.9218 164.078>
VStem: 64 112<185.922 274.078>
LayerCount: 3
Fore
SplineSet
64 230 m 0
 64 261 89 286 120 286 c 0
 151 286 176 261 176 230 c 0
 176 199 151 174 120 174 c 0
 89 174 64 199 64 230 c 0
EndSplineSet
EndChar

